<svg width="1440" height="1024" viewBox="0 0 1440 1024" fill="none" xmlns="http://www.w3.org/2000/svg">
<path d="M1310.47 776.848L1082.68 678.627L1307.98 526.605L1310.47 776.848Z" fill="#575656"/>
<path d="M1242.59 681.769L1061.42 1048.78L833.306 683.781L1242.59 681.769Z" fill="#A15E5E"/>
<path d="M1052.69 1027L1243.12 664.708L1461.89 1035.37L1052.69 1027Z" fill="#D9D9D9"/>
<path d="M1449.78 504.152L1258.03 664.531L1214.65 410.615L1449.78 504.152Z" fill="#A15E5E"/>
<path d="M1258.24 650.51L1454.17 494.87L1490.84 749.753L1258.24 650.51Z" fill="#D9D9D9"/>
<path d="M1268.42 852.137L1491.23 742.475L1460.09 1012.53L1268.42 852.137Z" fill="#A15E5E"/>
<path d="M1487.09 756.664L1261.74 860.349L1299.37 591.175L1487.09 756.664Z" fill="#575656"/>
<path d="M231.661 881.991L330.734 654.572L481.911 880.439L231.661 881.991Z" fill="#575656"/>
<path d="M326.993 814.47L-39.3334 631.92L326.515 405.179L326.993 814.47Z" fill="#A15E5E"/>
<path d="M-17.5235 623.273L344.053 815.06L-27.4314 1032.44L-17.5235 623.273Z" fill="#D9D9D9"/>
<path d="M503.833 1022.32L344.173 829.967L598.251 787.54L503.833 1022.32Z" fill="#A15E5E"/>
<path d="M358.193 830.23L513.098 1026.74L258.08 1062.46L358.193 830.23Z" fill="#D9D9D9"/>
<path d="M156.53 839.654L265.356 1062.88L-4.58231 1030.73L156.53 839.654Z" fill="#A15E5E"/>
<path d="M251.183 1058.69L148.343 832.949L417.374 871.586L251.183 1058.69Z" fill="#575656"/>
<path d="M1198.69 293.83L1112.49 526.436L948.916 309.378L1198.69 293.83Z" fill="#575656"/>
<path d="M1107.28 366.579L1483.25 528.352L1130.65 775.202L1107.28 366.579Z" fill="#A15E5E"/>
<path d="M1461.95 538.205L1090.22 366.944L1448.96 129.12L1461.95 538.205Z" fill="#D9D9D9"/>
<path d="M919.092 168.944L1089.26 352.067L837.955 408.639L919.092 168.944Z" fill="#A15E5E"/>
<path d="M1075.25 352.589L909.593 165.047L1162.22 115.125L1075.25 352.589Z" fill="#D9D9D9"/>
<path d="M1276.07 331.899L1154.93 115.112L1426.24 132.111L1276.07 331.899Z" fill="#A15E5E"/>
<path d="M1169.31 118.501L1284.62 338.136L1013.85 314.608L1169.31 118.501Z" fill="#575656"/>
<path d="M126.219 403.462L356.006 496.913L133.925 653.598L126.219 403.462Z" fill="#575656"/>
<path d="M196.064 497.105L369.55 126.4L605.22 486.562L196.064 497.105Z" fill="#A15E5E"/>
<path d="M378.731 147.991L195.894 514.174L-30.5606 148.148L378.731 147.991Z" fill="#D9D9D9"/>
<path d="M-7.37613 679.003L180.994 514.661L229.657 767.618L-7.37613 679.003Z" fill="#A15E5E"/>
<path d="M181.076 528.684L-11.5687 688.374L-53.5426 434.311L181.076 528.684Z" fill="#D9D9D9"/>
<path d="M166.695 327.313L-53.7844 441.595L-28.284 170.948L166.695 327.313Z" fill="#A15E5E"/>
<path d="M-49.9464 427.324L173.197 318.964L141.188 588.863L-49.9464 427.324Z" fill="#575656"/>
</svg>
